Coordinates
version=1
nRows=16
nColumns=33
inDegrees=yes

Units are S.I. units (second, meters, Newtons, ...)
If the header above contains a line with 'inDegrees', this indicates whether rotational values are in degrees (yes) or radians (no).

endheader
time	pelvis_tilt	pelvis_list	pelvis_rotation	pelvis_tx	pelvis_ty	pelvis_tz	hip_flexion_r	hip_adduction_r	hip_rotation_r	knee_angle_r	knee_angle_r_beta	ankle_angle_r	subtalar_angle_r	mtp_angle_r	hip_flexion_l	hip_adduction_l	hip_rotation_l	knee_angle_l	knee_angle_l_beta	lumbar_extension	lumbar_bending	lumbar_rotation	arm_flex_r	arm_add_r	arm_rot_r	elbow_flex_r	pro_sup_r	arm_flex_l	arm_add_l	arm_rot_l	elbow_flex_l	pro_sup_l
      1.28750000	    -14.17741549	      7.89043886	     -3.71827138	      0.43486877	      0.92397180	     -0.44463336	     22.40405494	    -14.12011516	     -1.78488320	    108.51948021	      1.89402223	    -25.48111218	      2.47748028	     -7.49999987	     47.51131401	     -2.14905768	     -0.16161881	     51.67241843	      0.90185383	    -26.86548514	    -16.21760131	     -3.00413209	     -6.98477954	    -19.34210736	     19.35346832	     70.21895304	    106.47279077	      0.80668223	    -32.47906159	    373.62756709	     59.52439010	     79.45590430
      1.29166670	    -14.88160868	      7.59492852	     -2.93652450	      0.45340317	      0.92076458	     -0.44517811	     25.59899313	    -13.97458185	     -2.09168212	    111.88691371	      1.95279503	    -23.26535366	      1.29092598	     -7.49999987	     46.83472719	     -1.42796256	      1.31496903	     51.04037121	      0.89082253	    -26.54433977	    -15.31919611	     -3.94226891	     -8.58637600	    -19.09052189	     18.74992482	     65.19342680	    105.40425614	      3.67479306	    -32.05474031	    375.32012568	     61.17274971	     80.26048549
      1.29583330	    -15.21624378	      6.98285207	     -2.21964833	      0.47247590	      0.91936484	     -0.44541081	     28.30316705	    -13.40367106	     -2.97474736	    114.47362551	      1.99794167	    -21.26413749	     -0.08287032	     -7.49999987	     45.53245455	     -0.98722993	      2.88709092	     50.13342821	      0.87499339	    -26.32800113	    -14.18074476	     -4.93354642	     -9.78237422	    -18.86228304	     18.14650530	     59.84607646	    104.88646272	      6.33407959	    -31.48436038	    376.28182449	     62.94069327	     80.78815929
      1.30000000	    -15.99062143	      6.69617461	     -1.03274124	      0.49103143	      0.91525478	     -0.44620581	     31.75747358	    -13.35284351	     -3.86078621	    116.18592983	      2.02782702	    -17.99276362	     -1.18663817	     -7.49999987	     44.96656070	     -0.11334926	      4.51073458	     49.61490183	      0.86594340	    -25.58230600	    -13.28444916	     -6.13697177	    -11.19032721	    -18.88517564	     18.06125216	     54.88010499	    100.05256964	      9.63999860	    -31.09041874	    378.10337629	     64.28505888	     82.48338181
      1.30416670	    -16.44898821	      5.79442303	      0.36015314	      0.50977402	      0.91245416	     -0.44678993	     34.77137939	    -12.58376691	     -5.16001521	    117.89385119	      2.05763587	    -15.96291147	     -2.86722249	     -7.49999987	     43.45765884	      0.32076899	      6.54957034	     48.16986769	      0.84072279	    -25.21183187	    -11.79452894	     -7.55887553	    -12.36345940	    -18.88443254	     17.31053525	     50.08208734	    100.10098690	     12.81619581	    -30.65336141	    379.22963540	     65.97791770	     83.20216654
      1.30833330	    -17.15726487	      4.44034272	      1.22766559	      0.52789140	      0.90842752	     -0.44777950	     38.20240196	    -11.70747031	     -6.28190981	    119.20559742	      2.08053016	    -13.81638049	     -3.84724431	     -7.49999987	     42.33947287	      0.29493023	      9.14812258	     47.00762159	      0.82043777	    -24.59184602	     -9.87536217	     -7.90095996	    -14.05933146	    -19.42636682	     16.15820815	     46.39427503	     96.55608504	     16.71522994	    -29.75188314	    381.15617223	     67.29993003	     84.00934640
      1.31250000	    -17.33078506	      3.64770773	      1.98865077	      0.54716733	      0.90589345	     -0.44817128	     41.00660191	    -11.10974784	     -7.22076345	    120.65335768	      2.10579835	    -11.53431896	     -5.18837316	     -7.49999987	     40.70588236	      0.27324963	     10.72963531	     45.90436259	      0.80118227	    -24.34880611	     -8.67215723	     -9.18835149	    -15.06365503	    -19.92127101	     15.49360609	     42.45253235	     96.38339434	     19.84184810	    -29.28029231	    381.90683408	     68.84448737	     84.55439688
      1.31666670	    -17.58035314	      2.78218703	      2.85457204	      0.56636162	      0.90270219	     -0.44910908	     43.86930725	    -10.59833352	     -8.03707009	    122.29557550	      2.13446045	     -9.07398556	     -6.54844685	     -7.49999987	     39.25898262	     -0.12746719	     11.55579447	     44.88613934	      0.78341092	    -24.04235356	     -7.29345896	    -10.23943001	    -16.54561480	    -20.59118521	     14.28681975	     39.14906892	     95.38143091	     23.31723201	    -28.49031345	    382.75363314	     69.97339588	     85.09854393
      1.32083330	    -16.82455323	      0.29356980	      4.05829977	      0.58419917	      0.90089230	     -0.45043939	     45.51194256	     -8.83044272	     -9.71485846	    122.67865864	      2.14114652	     -8.02828056	     -2.92725766	     -7.49999987	     36.32139158	     -2.31161270	     12.40958494	     42.57213846	      0.74302399	    -25.21120533	     -4.16311056	     -9.41351585	    -19.51139625	    -21.27961153	     10.81256474	     37.60812980	     91.95517261	     29.05877806	    -26.68884620	    385.82938943	     70.46573149	     85.82718395
      1.32500000	    -15.73744155	     -0.04194751	      4.46754535	      0.60446959	      0.90066657	     -0.45056273	     46.72775667	     -9.14957352	     -9.61987840	    123.01646541	      2.14704236	     -4.31278740	     -1.31053488	     -7.49999987	     33.49389450	     -3.75119559	      9.88685371	     41.27487985	      0.72038255	    -26.31567137	     -3.30902530	    -10.20029274	    -21.20557557	    -22.03269862	      8.98700362	     35.32778948	     90.72103741	     32.94585387	    -25.96615742	    386.79637988	     71.27644925	     85.97798308
      1.32916670	    -14.67055904	      0.16363986	      4.62295291	      0.62467649	      0.89897904	     -0.45120637	     48.19931357	     -9.06368405	     -9.14091920	    124.52676435	      2.17340204	     -2.55950861	     -1.30389054	     -7.49999987	     30.44490361	     -4.67395335	      7.22804749	     39.86137203	      0.69571219	    -27.56785911	     -3.22920756	    -10.50915096	    -23.31811119	    -22.49727458	      5.94808783	     33.35161788	     90.36258454	     37.52631289	    -24.85184159	    388.34764361	     71.68049702	     86.55804779
      1.33333330	    -14.04653453	      0.70467357	      4.14343343	      0.64523500	      0.89805632	     -0.45182505	     50.12671313	     -9.48973175	     -7.66460069	    125.34002460	      2.18759611	     -1.74432828	     -0.82363974	     -7.49999987	     27.99707307	     -5.32129444	      4.41757584	     38.96164581	      0.68000900	    -28.37697313	     -3.45611328	    -10.86279979	    -25.00032384	    -23.15262762	      2.71537926	     31.45107134	     90.56425953	     41.43936054	    -23.92190701	    389.01892456	     72.12573011	     86.97437629
      1.33750000	    -13.60131120	      1.68821599	      3.66934881	      0.66654682	      0.89568930	     -0.45266721	     52.16281333	     -9.96914708	     -6.31308698	    125.61211990	      2.19234507	     -0.89091046	     -0.52772010	     -7.49999987	     25.93680860	     -5.48694992	      1.51575094	     38.57458980	      0.67325360	    -28.83011971	     -4.30175961	    -11.63306050	    -26.48543468	    -23.73929523	     -0.86829509	     29.56453235	     91.21262347	     45.23801751	    -23.21773311	    389.68305989	     72.47012313	     87.28192315
      1.34166670	    -13.59512229	      2.21907795	      3.01456263	      0.68728888	      0.89464869	     -0.45340140	     54.41250337	     -9.92047185	     -4.98312429	    125.19906938	      2.18513598	     -2.12340670	     -0.80663570	     -7.49999987	     23.95039113	     -5.65316383	     -0.23776590	     37.50760047	      0.65463112	    -29.00291264	     -4.62989648	    -11.89544995	    -27.89757608	    -24.16871335	     -6.44810840	     28.13946723	     94.98677852	     49.07728329	    -22.36884422	    390.10285456	     72.70079622	     87.44472722
      1.34583330	    -13.88890821	      2.52035777	      2.18964009	      0.70856136	      0.89394259	     -0.45414713	     57.19194891	     -9.83071941	     -3.91699018	    123.94341495	      2.16322068	     -3.91722327	     -0.54021556	     -7.49999987	     22.25069299	     -5.91755805	     -1.91864081	     36.39011490	      0.63512732	    -28.56407095	     -4.85051201	    -12.62219579	    -28.28024400	    -25.37643951	     -9.02452331	     26.48191073	     94.55123372	     52.25566151	    -22.16795629	    389.95382969	     72.92212050	     87.53058238
      1.35000000	    -13.90165993	      2.62038001	      1.66652612	      0.72965283	      0.89319867	     -0.45428327	     59.30136482	     -9.51462305	     -3.38879870	    123.23020601	      2.15077283	     -5.35122267	     -2.04064431	     -7.49999987	     20.43677468	     -6.29542658	     -3.19755503	     35.41768402	      0.61815520	    -28.64136032	     -4.72067302	    -12.58053410	    -30.01530256	    -25.23454555	    -17.92026760	     27.20271584	     98.69649394	     56.20627378	    -21.32218817	    390.55961086	     72.51548291	     88.14596055
